 <!DOCTYPE svg PUBLIC "-//W3C//DTD SVG 1.1//EN" "http://www.w3.org/Graphics/SVG/1.1/DTD/svg11.dtd">
<svg id="ae2e59ed-7eb8-4010-bce0-a26dd5ef5007" data-name="Layer 1" xmlns="http://www.w3.org/2000/svg" xmlns:xlink="http://www.w3.org/1999/xlink" width="865.76" height="682.89" viewBox="0 0 865.76 682.89">
<defs>
<clipPath id="e4e9f0f4-cfd3-4d22-9666-20fe6cb3fc84">
<path id="f90a983b-889d-4fe7-9143-880ee07d8fe8" data-name="SVGID" d="M296.9,340.32l4,8.74s24.65-11.45,30-18.19c1.36-1.69,3.25-4.5,5.29-7.65,3.37-5.21,7.14-11.47,9.77-15.87,2-3.28,3.27-5.53,3.27-5.53l-14-22c-3,2.35-12.38,39.95-14,42S296.9,340.32,296.9,340.32Z" fill="none"/>
</clipPath>
<clipPath id="a09f6ee2-3a0f-4bdf-9b08-c640447413a5">
<path id="b3e9c878-fae3-4c60-940b-0a7bf9c495ea" data-name="SVGID" d="M399.65,354.69s9.8-59.72-7-86.49c0,0-33.69-2.09-57.27,11.57,0,0,9.77,26.59,11.23,74.92Z" fill="none"/>
</clipPath>
<style xmlns="http://www.w3.org/1999/xhtml">*, ::after, ::before { box-sizing: border-box; }
img, svg { vertical-align: middle; }
</style>
<style xmlns="http://www.w3.org/1999/xhtml">*, body, html { -webkit-font-smoothing: antialiased; }
img, svg { max-width: 100%; }
</style>
</defs>
<g id="a4d63a57-345b-4899-a79e-e4cf007397b6" data-name="freepik--background-complete--inject-16">
<rect x="11.73" y="579.18" width="842.29" height="0.42" fill="#ebebeb"/>
<rect x="713.84" y="606.28" width="55.79" height="0.42" fill="#ebebeb"/>
<rect x="555.07" y="610.86" width="14.64" height="0.42" fill="#ebebeb"/>
<rect x="679.83" y="590.65" width="32.33" height="0.42" fill="#ebebeb"/>
<rect x="100.11" y="593.48" width="72.76" height="0.42" fill="#ebebeb"/>
<rect x="187.88" y="593.48" width="10.66" height="0.42" fill="#ebebeb"/>
<rect x="233.21" y="600.59" width="157.81" height="0.42" fill="#ebebeb"/>
<path d="M411,504H85.71a9.62,9.62,0,0,1-9.61-9.62V37.18a9.62,9.62,0,0,1,9.61-9.54H411a9.62,9.62,0,0,1,9.62,9.62h0V494.42A9.62,9.62,0,0,1,411,504ZM85.71,28a9.2,9.2,0,0,0-9.19,9.2V494.42a9.2,9.2,0,0,0,9.19,9.2H411a9.21,9.21,0,0,0,9.2-9.2V37.18A9.21,9.21,0,0,0,411,28Z" fill="#ebebeb"/>
<path d="M775.38,504H450.08a9.64,9.64,0,0,1-9.62-9.62V37.18a9.65,9.65,0,0,1,9.62-9.54h325.3A9.62,9.62,0,0,1,785,37.18V494.42A9.62,9.62,0,0,1,775.38,504ZM450.08,28a9.22,9.22,0,0,0-9.2,9.2V494.42a9.22,9.22,0,0,0,9.2,9.2h325.3a9.21,9.21,0,0,0,9.19-9.2V37.18a9.21,9.21,0,0,0-9.19-9.2Z" fill="#ebebeb"/>
<path d="M155.56,517.57c0-.67,2.28-66.84,13-77.31,10.46-10.1,22.48-.38,23,0l1.08-1.29c-.14-.1-13.7-11.17-25.27,0-11.25,10.93-13.48,75.7-13.48,78.45Z" fill="#e0e0e0"/>
<path d="M154.66,530.56c0-.78,7.34-79.43-21.38-112.4L132,419.27c28.25,32.42,21,110.34,21,111.19Z" fill="#e0e0e0"/>
<path d="M155.72,522.25l1.68-.11c0-.9-5.61-89.42,15.45-108.8l-1.13-1.24C150,432,155.46,518.56,155.72,522.25Z" fill="#e0e0e0"/>
<path d="M153,522.2h1.69c0-2.44-.7-59.78-17-69.07a11.56,11.56,0,0,0-10.53-1c-9.86,4.07-14.74,21.61-14.94,22.35l1.68.46c0-.19,4.87-17.49,13.95-21.25a10,10,0,0,1,9.06.93C152.28,463.38,153,521.61,153,522.2Z" fill="#e0e0e0"/>
<path d="M159.3,522.24l1.69-.1c0-.44-2.46-45.32,9.65-61.12,2.93-3.81,6.18-5.66,9.55-5.49,7.94.55,14.59,12.16,14.66,12.28l1.47-.83c-.29-.52-7.16-12.51-16-13.14-3.94-.28-7.63,1.69-10.93,6.08C156.81,476.3,159.2,520.37,159.3,522.24Z" fill="#e0e0e0"/>
<path d="M156.61,528.33c.32-4.34,7.92-106.8-5.44-124.84l-1.35,1c13,17.56,5.19,122.68,5.05,123.74Z" fill="#e0e0e0"/>
<path d="M123.49,462.42s8,2.94,5.63,9.92-27.7,18.43-27.7,18.43-10.61-9.72-.87-25.52S123.27,457.43,123.49,462.42Z" fill="#ebebeb"/>
<path d="M158.29,449.14s-8.42-.35-9,7,18.53,27.68,18.53,27.68,13.48-4.88,10.63-23.23S160.43,444.63,158.29,449.14Z" fill="#ebebeb"/>
<path d="M165.52,414s-5.68-.61-5.22-4.08,22.1-12.36,34.87,2c0,0-8.17,14.05-20,14.23S165.52,414,165.52,414Z" fill="#ebebeb"/>
<path d="M154.92,405.56s5.16,2.48,6.61-.69-12.21-22.2-30.68-16.73c0,0-.49,16.26,9.45,22.66S154.92,405.56,154.92,405.56Z" fill="#ebebeb"/>
<path d="M181.88,459.6s-3.93-3.16.32-4.7,25-1.11,25.27,19.48c0,0-24.19,4-27.19-3.83S181.88,459.6,181.88,459.6Z" fill="#ebebeb"/>
<path d="M132.5,413.41s3.93-3.17-.3-4.71-25-1.1-25.27,19.47c0,0,24.21,4,27.19-3.81S132.5,413.41,132.5,413.41Z" fill="#ebebeb"/>
<path d="M145.29,430s.35-3.84-2.76-2.34-13.94,13.21-2.72,24.29c0,0,15.17-11.2,12.4-17S145.29,430,145.29,430Z" fill="#ebebeb"/>
<path d="M185.37,435.51s-2.36-3.06,1.07-3.45,18.84,3.72,15.25,19.1c0,0-18.75-1.41-19.56-7.8S185.37,435.51,185.37,435.51Z" fill="#ebebeb"/>
<polygon points="121.99 579.24 186.34 579.24 193.28 508.79 115.05 508.79 121.99 579.24" fill="#f0f0f0"/>
<rect x="111.63" y="501.03" width="85.11" height="15.55" fill="#e6e6e6"/>
<path d="M709.53,517.57c0-.67-2.26-66.84-13-77.31-10.46-10.1-22.49-.38-23,0l-1.1-1.29c.15-.1,13.7-11.17,25.27,0,11.25,10.93,13.48,75.7,13.48,78.45Z" fill="#e0e0e0"/>
<path d="M710.45,530.56c0-.78-7.34-79.43,21.38-112.4l1.26,1.11c-28.25,32.42-21,110.34-21,111.19Z" fill="#e0e0e0"/>
<path d="M709.39,522.25l-1.68-.11c0-.9,5.62-89.42-15.45-108.8l1.14-1.24C715.07,432,709.64,518.56,709.39,522.25Z" fill="#e0e0e0"/>
<path d="M712.14,522.2h-1.69c0-2.44.69-59.78,17-69.07a11.6,11.6,0,0,1,10.55-1c9.85,4.07,14.74,21.61,14.94,22.35l-1.68.46c0-.19-4.87-17.49-14-21.25a10,10,0,0,0-9.07.93C712.81,463.38,712.14,521.61,712.14,522.2Z" fill="#e0e0e0"/>
<path d="M705.79,522.24l-1.69-.1c0-.44,2.46-45.32-9.65-61.12-2.93-3.84-6.13-5.66-9.49-5.43-7.93.56-14.58,12.17-14.65,12.28l-1.47-.82c.29-.52,7.16-12.52,16-13.14,3.94-.29,7.63,1.68,10.93,6.08C708.28,476.3,705.9,520.37,705.79,522.24Z" fill="#e0e0e0"/>
<path d="M708.45,528.33c-.34-4.34-7.92-106.8,5.44-124.84l1.35,1c-13,17.56-5.19,122.68-5.06,123.74Z" fill="#e0e0e0"/>
<path d="M741.62,462.42s-8,2.94-5.63,9.92,27.69,18.43,27.69,18.43,10.62-9.72.86-25.52S741.82,457.43,741.62,462.42Z" fill="#ebebeb"/>
<path d="M706.8,449.14s8.52-.35,9,7-18.53,27.68-18.53,27.68-13.48-4.88-10.61-23.23S704.67,444.63,706.8,449.14Z" fill="#ebebeb"/>
<path d="M699.59,414s5.67-.61,5.22-4.08-22.1-12.36-34.87,2c0,0,8.17,14.05,20,14.23S699.59,414,699.59,414Z" fill="#ebebeb"/>
<path d="M710.17,405.56s-5.14,2.48-6.59-.69,12.21-22.2,30.67-16.73c0,0,.49,16.26-9.45,22.66S710.17,405.56,710.17,405.56Z" fill="#ebebeb"/>
<path d="M683.26,459.6s3.93-3.16-.32-4.7-25-1.11-25.27,19.48c0,0,24.19,4,27.19-3.83S683.26,459.6,683.26,459.6Z" fill="#ebebeb"/>
<path d="M732.6,413.41s-3.92-3.17.31-4.71,25-1.1,25.27,19.47c0,0-24.21,4-27.19-3.81S732.6,413.41,732.6,413.41Z" fill="#ebebeb"/>
<path d="M719.8,430s-.34-3.84,2.76-2.34,14,13.21,2.73,24.29c0,0-15.16-11.2-12.4-17S719.8,430,719.8,430Z" fill="#ebebeb"/>
<path d="M679.74,435.51s2.36-3.06-1.08-3.45-18.83,3.72-15.16,19.1c0,0,18.75-1.41,19.56-7.8S679.74,435.51,679.74,435.51Z" fill="#ebebeb"/>
<polygon points="743.1 579.24 678.76 579.24 671.82 508.79 750.06 508.79 743.1 579.24" fill="#f0f0f0"/>
<rect x="668.39" y="501.01" width="85.11" height="15.55" fill="#e6e6e6"/>
<rect x="240.87" y="150.23" width="171.36" height="344.57" fill="#fafafa"/>
<rect x="236.91" y="145.55" width="179.27" height="16.91" fill="#f0f0f0"/>
<rect x="236.91" y="164.33" width="179.27" height="8.46" fill="#f0f0f0"/>
<rect x="236.91" y="176.88" width="179.27" height="8.46" fill="#f0f0f0"/>
<rect x="236.91" y="189.43" width="179.27" height="8.46" fill="#f0f0f0"/>
<rect x="236.91" y="201.98" width="179.27" height="8.46" fill="#f0f0f0"/>
<rect x="236.91" y="214.51" width="179.27" height="8.46" fill="#f0f0f0"/>
<rect x="236.91" y="227.06" width="179.27" height="8.46" fill="#f0f0f0"/>
<rect x="236.91" y="239.61" width="179.27" height="8.46" fill="#f0f0f0"/>
<rect x="236.91" y="252.16" width="179.27" height="8.46" fill="#f0f0f0"/>
<rect x="236.91" y="264.71" width="179.27" height="8.46" fill="#f0f0f0"/>
<rect x="236.91" y="277.26" width="179.27" height="8.46" fill="#f0f0f0"/>
<rect x="236.91" y="289.8" width="179.27" height="8.46" fill="#f0f0f0"/>
<rect x="236.91" y="302.35" width="179.27" height="8.46" fill="#f0f0f0"/>
<rect x="236.91" y="314.9" width="179.27" height="8.46" fill="#f0f0f0"/>
<rect x="236.91" y="327.45" width="179.27" height="8.46" fill="#f0f0f0"/>
<rect x="236.91" y="340" width="179.27" height="8.46" fill="#f0f0f0"/>
<rect x="236.91" y="352.53" width="179.27" height="8.46" fill="#f0f0f0"/>
<rect x="236.91" y="365.08" width="179.27" height="8.46" fill="#f0f0f0"/>
<rect x="236.91" y="377.63" width="179.27" height="8.46" fill="#f0f0f0"/>
<rect x="236.91" y="390.18" width="179.27" height="8.46" fill="#f0f0f0"/>
<rect x="236.91" y="402.73" width="179.27" height="8.46" fill="#f0f0f0"/>
<rect x="236.91" y="415.28" width="179.27" height="8.46" fill="#f0f0f0"/>
<rect x="236.91" y="427.82" width="179.27" height="8.46" fill="#f0f0f0"/>
<rect x="236.91" y="440.37" width="179.27" height="8.46" fill="#f0f0f0"/>
<rect x="236.91" y="452.92" width="179.27" height="8.46" fill="#f0f0f0"/>
<rect x="236.91" y="465.47" width="179.27" height="8.46" fill="#f0f0f0"/>
<rect x="236.91" y="478.02" width="179.27" height="8.46" fill="#f0f0f0"/>
<rect x="236.91" y="490.55" width="179.27" height="8.46" fill="#f0f0f0"/>
<rect x="453.54" y="150.23" width="171.36" height="344.57" fill="#fafafa"/>
<rect x="449.58" y="145.55" width="179.27" height="16.91" fill="#f0f0f0"/>
<rect x="449.58" y="164.33" width="179.27" height="1.55" fill="#f0f0f0"/>
<rect x="449.58" y="167.87" width="179.27" height="1.55" fill="#f0f0f0"/>
<rect x="449.58" y="171.39" width="179.27" height="1.55" fill="#f0f0f0"/>
<rect x="449.58" y="174.92" width="179.27" height="1.55" fill="#f0f0f0"/>
<rect x="449.58" y="178.45" width="179.27" height="1.55" fill="#f0f0f0"/>
<rect x="449.58" y="181.98" width="179.27" height="1.55" fill="#f0f0f0"/>
<rect x="449.58" y="185.5" width="179.27" height="1.55" fill="#f0f0f0"/>
<rect x="449.58" y="189.04" width="179.27" height="1.55" fill="#f0f0f0"/>
<rect x="449.58" y="192.58" width="179.27" height="1.55" fill="#f0f0f0"/>
<rect x="449.58" y="196.1" width="179.27" height="1.55" fill="#f0f0f0"/>
<rect x="449.58" y="199.64" width="179.27" height="1.55" fill="#f0f0f0"/>
<rect x="449.58" y="203.16" width="179.27" height="1.55" fill="#f0f0f0"/>
<rect x="449.58" y="206.7" width="179.27" height="1.55" fill="#f0f0f0"/>
<rect x="449.58" y="210.22" width="179.27" height="1.55" fill="#f0f0f0"/>
<rect x="449.58" y="213.75" width="179.27" height="1.55" fill="#f0f0f0"/>
<rect x="449.58" y="217.29" width="179.27" height="1.55" fill="#f0f0f0"/>
<rect x="449.58" y="220.81" width="179.27" height="1.55" fill="#f0f0f0"/>
<rect x="449.58" y="224.35" width="179.27" height="1.55" fill="#f0f0f0"/>
<circle cx="432.9" cy="97.19" r="25.56" transform="translate(203.79 477.13) rotate(-71.56)" fill="#f0f0f0"/>
<circle cx="432.9" cy="97.19" r="21.73" transform="translate(267.6 508.93) rotate(-80.78)" fill="#fafafa"/>
<polyline points="431.85 82.27 431.85 97.47 421.8 91.77" fill="#f0f0f0" stroke="#e0e0e0" stroke-linecap="round" stroke-linejoin="round" stroke-width="2"/>
</g>
<g id="aff478f4-795b-4a8f-99fd-8de8fd908c22" data-name="freepik--Shadow--inject-16">
<ellipse id="b0493c8d-6354-468f-b5c7-0ebbe529770e" data-name="freepik--path--inject-16" cx="432.88" cy="636.18" rx="326.62" ry="19.07" fill="#f5f5f5"/>
</g>
<rect x="436.44" y="194.01" width="320.11" height="348.31" rx="6.15" fill="#ccc"/>
<rect x="426.33" y="187.27" width="320.11" height="348.31" rx="6.15" fill="#407bff"/>
<rect x="426.33" y="187.27" width="320.11" height="348.31" rx="6.15" fill="#fff"/>
<rect x="167.95" y="185.77" width="168.49" height="297.77" rx="6.15" fill="#ccc"/>
<rect x="157.84" y="175.67" width="168.49" height="297.77" rx="6.15" fill="#407bff"/>
<rect x="157.84" y="175.67" width="168.49" height="297.77" rx="6.15" fill="#fff"/>
<rect x="157.84" y="88.81" width="589.94" height="39.18" rx="6.49" fill="#e6e6e6"/>
<path d="M687.91,108.4a7.56,7.56,0,1,1-7.56-7.65,7.56,7.56,0,0,1,7.56,7.65Z" fill="#fff" opacity="0.6" style="isolation:isolate"/>
<path d="M711.56,108.4a7.56,7.56,0,1,1-7.56-7.65,7.55,7.55,0,0,1,7.56,7.65Z" fill="#fff" opacity="0.6" style="isolation:isolate"/>
<path d="M735.2,108.4a7.57,7.57,0,1,1-7.51-7.65A7.56,7.56,0,0,1,735.2,108.4Z" fill="#fff" opacity="0.6" style="isolation:isolate"/>
<rect x="171.59" y="98.56" width="19.44" height="19.66" fill="#fff" opacity="0.6" style="isolation:isolate"/>
<rect x="134.15" y="223.12" width="181.67" height="34.75" fill="#d1d3d4"/>
<rect x="145.79" y="233.25" width="14.5" height="14.5" fill="#fff"/>
<polyline points="148.96 240.54 151.67 244.01 157.13 236.99" fill="none" stroke="#bcbec0" stroke-linecap="round" stroke-linejoin="round" stroke-width="1.5"/>
<path d="M306.25,248.64H291.66v-9.87h14.59ZM299,231.48a6.19,6.19,0,0,0-6.2,6.18h1.68a4.52,4.52,0,0,1,9,0h1.68A6.2,6.2,0,0,0,299,231.48Z" fill="#fff"/>
<rect x="107.45" y="287.37" width="181.67" height="34.75" fill="#d1d3d4"/>
<rect x="119.09" y="297.48" width="14.5" height="14.5" fill="#fff"/>
<rect x="264.96" y="303.02" width="14.59" height="9.85" fill="#fff"/>
<path d="M278.44,301.94h-1.69a4.5,4.5,0,0,0-9,0h-1.69a6.19,6.19,0,0,1,12.37,0Z" fill="#fff"/>
<rect x="135.1" y="354.62" width="181.67" height="34.75" fill="#d1d3d4"/>
<rect x="146.74" y="364.74" width="14.5" height="14.5" fill="#fff"/>
<polyline points="149.91 372.02 152.62 375.51 158.07 368.48" fill="none" stroke="#bcbec0" stroke-linecap="round" stroke-linejoin="round" stroke-width="1.5"/>
<rect x="292.61" y="370.27" width="14.59" height="9.85" fill="#fff"/>
<path d="M306.08,369.21H304.4a4.51,4.51,0,1,0-9-.55,2.53,2.53,0,0,0,0,.55H293.7a6.2,6.2,0,1,1,12.38-.65C306.09,368.78,306.09,369,306.08,369.21Z" fill="#fff"/>
<rect x="562.54" y="316.75" width="141.86" height="92.26" fill="#d1d3d4"/>
<rect x="567.73" y="334.03" width="131.48" height="70.35" fill="#000000" data-secondary="true"/>
<rect x="578.45" y="344.55" width="97.25" height="3.03" fill="#fff"/>
<rect x="578.45" y="353.83" width="46.66" height="3.03" fill="#fff"/>
<rect x="578.45" y="363.09" width="58.78" height="3.03" fill="#fff"/>
<rect x="578.45" y="372.36" width="20.72" height="3.03" fill="#fff"/>
<rect x="578.45" y="381.62" width="13.41" height="3.03" fill="#fff"/>
<path d="M708.46,498.69v51.44a5.79,5.79,0,0,1-5,5.75,6.31,6.31,0,0,1-.87,0H636.55a5.81,5.81,0,0,1-5.81-5.81h0V498.69a5.49,5.49,0,0,1,.59-2.55,5.79,5.79,0,0,1,5.22-3.28h25.91a5.84,5.84,0,0,0,5.49-4,5.83,5.83,0,0,1,5.54-4h13.76a5.82,5.82,0,0,1,5.55,4,5.83,5.83,0,0,0,5.54,4h4.23a5.82,5.82,0,0,1,5.89,5.76Z" fill="#000000" data-secondary="true"/>
<path d="M703.51,501.11v54.77h-67a5.81,5.81,0,0,1-5.81-5.81h0V498.69a5.49,5.49,0,0,1,.59-2.55h67.21A5.06,5.06,0,0,1,703.51,501.11Z" fill="#fff" opacity="0.3" style="isolation:isolate"/>
<polygon points="550.75 422.96 550.75 487.3 538.19 499.87 492.1 499.87 492.1 422.96 550.75 422.96" fill="#000000" data-secondary="true"/>
<polygon points="550.75 422.96 550.75 487.3 538.19 499.87 492.1 499.87 492.1 422.96 550.75 422.96" fill="#fff" opacity="0.4" style="isolation:isolate"/>
<polygon points="550.75 487.3 538.19 487.3 538.19 499.87 550.75 487.3" fill="#000000" data-secondary="true"/>
<rect x="499.41" y="436.02" width="44.24" height="2.41" fill="#000000" data-secondary="true"/>
<rect x="499.41" y="443.41" width="37.21" height="2.41" fill="#000000" data-secondary="true"/>
<rect x="499.41" y="450.79" width="44.24" height="2.41" fill="#000000" data-secondary="true"/>
<rect x="499.41" y="458.19" width="16.51" height="2.41" fill="#000000" data-secondary="true"/>
<rect x="499.41" y="465.58" width="10.7" height="2.41" fill="#000000" data-secondary="true"/>
<rect x="470.36" y="177.4" width="119.93" height="99.09" fill="#000000" data-secondary="true"/>
<path d="M470.36,177.4v99.09H590.29V177.4Zm116,95.18H474.29V181.31H586.38Z" fill="#fff" opacity="0.6" style="isolation:isolate"/>
<polygon points="474.29 245.53 508.65 220.56 534.19 245.53 559.73 230.94 586.38 247.34 586.38 272.58 474.29 272.58 474.29 245.53" fill="#fff" opacity="0.3" style="isolation:isolate"/>
<path d="M555.25,203.83a8.21,8.21,0,1,1-8.2-8.22,8.21,8.21,0,0,1,8.2,8.22Z" fill="#fff" opacity="0.6" style="isolation:isolate"/>
<rect x="527.67" y="167.43" width="5.31" height="5.31" fill="#d1d3d4"/>
<polygon points="598.97 284.81 594.75 284.81 594.75 283.13 597.28 283.13 597.28 280.6 598.97 280.6 598.97 284.81" fill="#d1d3d4"/>
<path d="M589.46,284.83h-7v-1.69h7Zm-12.32,0h-7v-1.69h7Zm-12.33,0h-7v-1.69h7Zm-12.32,0h-7v-1.69h7Zm-12.33,0h-7v-1.69h7Zm-12.33,0h-7v-1.69h7Zm-12.32,0h-7.05v-1.69h7.05Zm-12.33,0h-7v-1.69h7Zm-12.33,0h-7v-1.69h7Zm-12.32,0h-7v-1.69h7Z" fill="#d1d3d4"/>
<polygon points="466.2 284.81 461.99 284.81 461.99 280.6 463.68 280.6 463.68 283.13 466.2 283.13 466.2 284.81" fill="#d1d3d4"/>
<path d="M463.68,275.73H462v-6.49h1.69Zm0-11.36H462v-6.5h1.69Zm0-11.37H462v-6.49h1.69Zm0-11.36H462v-6.5h1.69Zm0-11.37H462v-6.49h1.69Zm0-11.36H462v-6.49h1.69Zm0-11.37H462v-6.49h1.69Zm0-11.36H462v-6.49h1.69Zm0-11.36H462v-6.5h1.69Z" fill="#d1d3d4"/>
<polygon points="463.68 173.46 461.99 173.46 461.99 169.25 466.2 169.25 466.2 170.93 463.68 170.93 463.68 173.46" fill="#d1d3d4"/>
<path d="M589.47,170.93h-7v-1.68h7Zm-12.32,0h-7v-1.68h7Zm-12.33,0h-7v-1.68h7Zm-12.33,0h-7v-1.68h7Zm-12.32,0h-7v-1.68h7Zm-12.33,0h-7v-1.68h7Zm-12.32,0h-7v-1.68h7Zm-12.33,0h-7v-1.68h7Zm-12.33,0h-7v-1.68h7Zm-12.32,0h-7.05v-1.68h7.05Z" fill="#d1d3d4"/>
<polygon points="598.97 173.46 597.28 173.46 597.28 170.93 594.75 170.93 594.75 169.25 598.97 169.25 598.97 173.46" fill="#d1d3d4"/>
<path d="M599,275.74h-1.69v-6.5H599Zm0-11.37h-1.69v-6.49H599ZM599,253h-1.69v-6.5H599Zm0-11.37h-1.69v-6.49H599Zm0-11.36h-1.69v-6.5H599Zm0-11.37h-1.69v-6.49H599Zm0-11.36h-1.69v-6.49H599Zm0-11.36h-1.69v-6.5H599Zm0-11.37h-1.69v-6.49H599Z" fill="#d1d3d4"/>
<rect x="595.46" y="167.43" width="5.31" height="5.31" fill="#d1d3d4"/>
<rect x="595.46" y="281.32" width="5.31" height="5.31" fill="#d1d3d4"/>
<rect x="460.17" y="281.32" width="5.31" height="5.31" fill="#d1d3d4"/>
<rect x="460.17" y="167.43" width="5.31" height="5.31" fill="#d1d3d4"/>
<rect x="527.83" y="281.32" width="5.31" height="5.31" fill="#d1d3d4"/>
<rect x="595.46" y="224.38" width="5.31" height="5.31" fill="#d1d3d4"/>
<rect x="460.17" y="224.38" width="5.31" height="5.31" fill="#d1d3d4"/>
<path d="M306.54,333.6l-17.93,14.55s-4.38.09-5.76,1.53-6.74,12.22-5.91,13.68,9.58,4.37,11.45,2.63,5.06-11.69,5.06-12.75l22.91-15.37Z" fill="#f9b499"/>
<path d="M296.9,340.32l4,8.74s24.65-11.45,30-18.19c1.36-1.69,3.25-4.5,5.29-7.65,3.37-5.21,7.14-11.47,9.77-15.87,2-3.28,3.27-5.53,3.27-5.53l-14-22c-3,2.35-12.38,39.95-14,42S296.9,340.32,296.9,340.32Z" fill="#000000" data-primary="true"/>
<g clip-path="url(#e4e9f0f4-cfd3-4d22-9666-20fe6cb3fc84)">
<path d="M336.19,323.15c3.37-5.2,7.14-11.47,9.77-15.87l-6.49-16S336,309.64,336.19,323.15Z" opacity="0.1" style="isolation:isolate"/>
</g>
<path d="M449.81,250.43l17.66-13.71s1.43-4.15,3.23-5.06,13.66-2.61,14.83-1.45,1.21,10.48-1,11.79-12.68,1.29-13.67.9L451.55,257Z" fill="#f9b499"/>
<polygon points="300.69 627.36 311.25 629.23 315.6 614.8 319.54 601.56 307.36 597.3 303.83 613.2 300.69 627.36" fill="#f9b499"/>
<polygon points="303.76 613.54 315.55 615.09 319.53 601.72 307.35 597.37 303.76 613.54" opacity="0.2" style="isolation:isolate"/>
<polygon points="371.28 627.61 382.02 627.61 383.78 613.2 385.38 599.76 372.62 597.82 371.92 613.63 371.28 627.61" fill="#f9b499"/>
<polygon points="371.92 614.57 383.78 614.05 385.38 600.18 372.62 598.03 371.92 614.57" opacity="0.2" style="isolation:isolate"/>
<path d="M302.76,602,320.15,605c17.54-43.69,30-80.18,38.74-110.45,4.76-16.35,8.51-30.87,11.36-43.8l-.74,47.59V605.69H387C430,401.86,399.56,354.47,399.56,354.47l-51.38-8.59a229.75,229.75,0,0,0-4.29,28.84l-2.33,17L321.48,495.49Z" fill="#000000" data-secondary="true"/>
<path d="M356.62,502.58c.81-2.73,1.69-5.39,2.43-8,4.31-14.85,7.17-28.17,10.54-40.15h0l1.69-22s-11-24.21-6.89-41.24c-.37,1-7.65,19.52-4.79,38.07A539.66,539.66,0,0,1,356.62,502.58Z" opacity="0.2" style="isolation:isolate"/>
<path d="M355.14,257.64a2.46,2.46,0,0,0,.45.25,18.52,18.52,0,0,0,7,2.36c7.18.71,11.8-.86,14.49-4.41h0c3.74-5.29,3.72-13.8,1.8-23.82a38.06,38.06,0,0,0-3.74-11.49v-.19a2.34,2.34,0,0,0-.23-.4,13.9,13.9,0,0,0-11.22-7.1,27.83,27.83,0,0,0-6.05.12C337.89,215.3,338.54,248.32,355.14,257.64Z" fill="#f9b499"/>
<path d="M355.59,257.89a18.13,18.13,0,0,0,7,2.09c7.18.71,11.79-1.1,14.45-4.7a19.81,19.81,0,0,1-12.61.61A10.25,10.25,0,0,0,355.59,257.89Z" fill="#d1d3d4"/>
<path d="M354.11,274c-1.77,5.49,5.29,8.51,5.29,8.51,12.42-3.93,15.25-10.11,15.25-10.11-9.44-6.16-5.06-20.53-5.06-20.53l-2.12.79L353,254.05s3.2,7.95,3.55,9.72h0C358.29,273.15,354.11,274,354.11,274Z" fill="#ebb376"/>
<path d="M375.15,220.39s2.88,13.66-9.43,21.29c0,0-3.74,15.07-12,16.35-11.23,1.68-23.24-13-21.48-29.86C334.55,206.34,366.42,200.45,375.15,220.39Z" fill="#263238"/>
<path d="M371.83,236.85c-.28-2.16-2.49-5.54-5.78-4.62s-4.19,9.76,4.57,10.55C371.87,242.9,372.42,241.35,371.83,236.85Z" fill="#ebb376"/>
<path d="M383.15,625.67h-12a1.07,1.07,0,0,0-1.07.86l-2.46,11.1a1.85,1.85,0,0,0,1.41,2.19h0a1.34,1.34,0,0,0,.4,0c4.91,0,5.31-.37,11.46-.37,3.79,0,15.24.39,20.48.39s5.92-5.17,3.78-5.65c-9.62-2.1-16.85-5.05-19.93-7.76A3.07,3.07,0,0,0,383.15,625.67Z" fill="#000000" data-primary="true"/>
<path d="M311.68,625.67h-12a1.09,1.09,0,0,0-1.06.86l-2.46,11.1a1.84,1.84,0,0,0,1.4,2.19h0a1.34,1.34,0,0,0,.4,0c4.92,0,5.31-.37,11.47-.37,3.79,0,15.16.39,20.47.39s5.93-5.17,3.79-5.65c-9.62-2.1-16.85-5.05-19.95-7.76A3,3,0,0,0,311.68,625.67Z" fill="#000000" data-primary="true"/>
<path d="M399.65,354.69s9.8-59.72-7-86.49c0,0-33.69-2.09-57.27,11.57,0,0,9.77,26.59,11.23,74.92Z" fill="#000000" data-primary="true"/>
<g clip-path="url(#a09f6ee2-3a0f-4bdf-9b08-c640447413a5)">
<path d="M402.71,309c.73-8.11-1.68-15.91-2-22.78a66.67,66.67,0,0,1-11.09-12.62S386.56,297.78,402.71,309Z" opacity="0.1" style="isolation:isolate"/>
</g>
<path d="M388.43,268.08s33.33-3.91,38.35-6c3.14-1.32,27.65-17.34,27.65-17.34l5.74,8.65S435.11,273.59,430.86,276c-9.94,5.46-32.28,13.17-32.28,13.17S385.09,279.66,388.43,268.08Z" fill="#000000" data-primary="true"/>
<path d="M374.65,229.44s13.86-13.87.79-23.2-26.21,2.85-26.21,2.85-31.27,7.55-24.62,28.35,11,22.56,1.1,33.22-20,26.52-9.89,36.62,45.48-.28,56.25-15.53S363.81,243.74,374.65,229.44Z" fill="#000000" data-secondary="true"/>
</svg>